# xmcd
#
# Track frame offsets: 
#        150
#        24629
#        47754
#        89128
#        121002
#        139734
#        162824
#        192581
#        218720
#
# Disc length: 3538 seconds
#
# Revision: 0
# Processed by: cddbd v1.5.2PL0 Copyright (c) Steve Scherf et al.
# Submitted via: ExactAudioCopy v0.99pb3
#
DISCID=7d0dd009
DTITLE=Aunt Kizzy'z Boyz - It's Tight Like That
DYEAR=2007
DGENRE=Blues
TTITLE0=Texas Bluesman
TTITLE1=Bad Girl
TTITLE2=Sugar Mama
TTITLE3=I Still Remember
TTITLE4=Bundalogy
TTITLE5=Juke Joint
TTITLE6=The Thrill Is Gone
TTITLE7=Jelly Roll (part deux)
TTITLE8=Annie Mae's Cafe
EXTD=
EXTT0=
EXTT1=
EXTT2=
EXTT3=
EXTT4=
EXTT5=
EXTT6=
EXTT7=
EXTT8=
PLAYORDER=
